<?xml version="1.0" encoding="UTF-8"?>
<svg xmlns="http://www.w3.org/2000/svg" xmlns:xlink="http://www.w3.org/1999/xlink" width="2px" height="2px" viewBox="0 0 2 2" version="1.1">
<defs>
<clipPath id="clip1">
  <path d="M 0 0 L 1 0 L 1 2 L 0 2 Z M 0 0 "/>
</clipPath>
<clipPath id="clip2">
  <path d="M 0.238281 0.8125 C 0.4375 0.589844 0.679688 0.785156 0.832031 0.953125 C 0.765625 1.042969 0.691406 1.160156 0.597656 1.222656 C 0.339844 1.398438 0.0507812 1.054688 0.238281 0.8125 Z M 0.238281 0.8125 "/>
</clipPath>
<clipPath id="clip3">
  <path d="M 0 0 L 1 0 L 1 1 L 0 1 Z M 0 0 "/>
</clipPath>
<clipPath id="clip4">
  <path d="M 0.238281 0.8125 C 0.4375 0.589844 0.679688 0.785156 0.832031 0.953125 C 0.765625 1.042969 0.691406 1.160156 0.597656 1.222656 C 0.339844 1.398438 0.0507812 1.054688 0.238281 0.8125 Z M 0.238281 0.8125 "/>
</clipPath>
<clipPath id="clip5">
  <path d="M 0 1 L 1 1 L 1 2 L 0 2 Z M 0 1 "/>
</clipPath>
<clipPath id="clip6">
  <path d="M 0.238281 0.8125 C 0.4375 0.589844 0.679688 0.785156 0.832031 0.953125 C 0.765625 1.042969 0.691406 1.160156 0.597656 1.222656 C 0.339844 1.398438 0.0507812 1.054688 0.238281 0.8125 Z M 0.238281 0.8125 "/>
</clipPath>
<clipPath id="clip7">
  <path d="M 0 0 L 1 0 L 1 1 L 0 1 Z M 0 0 "/>
</clipPath>
<clipPath id="clip8">
  <path d="M 0.238281 0.8125 C 0.4375 0.589844 0.679688 0.785156 0.832031 0.953125 C 0.765625 1.042969 0.691406 1.160156 0.597656 1.222656 C 0.339844 1.398438 0.0507812 1.054688 0.238281 0.8125 Z M 0.238281 0.8125 "/>
</clipPath>
<clipPath id="clip9">
  <path d="M 0 0 L 1 0 L 1 2 L 0 2 Z M 0 0 "/>
</clipPath>
<clipPath id="clip10">
  <path d="M 0.238281 0.8125 C 0.4375 0.589844 0.679688 0.785156 0.832031 0.953125 C 0.765625 1.042969 0.691406 1.160156 0.597656 1.222656 C 0.339844 1.398438 0.0507812 1.054688 0.238281 0.8125 Z M 0.238281 0.8125 "/>
</clipPath>
<clipPath id="clip11">
  <path d="M 0 0 L 1 0 L 1 1 L 0 1 Z M 0 0 "/>
</clipPath>
<clipPath id="clip12">
  <path d="M 0.238281 0.8125 C 0.4375 0.589844 0.679688 0.785156 0.832031 0.953125 C 0.765625 1.042969 0.691406 1.160156 0.597656 1.222656 C 0.339844 1.398438 0.0507812 1.054688 0.238281 0.8125 Z M 0.238281 0.8125 "/>
</clipPath>
<clipPath id="clip13">
  <path d="M 0 1 L 1 1 L 1 2 L 0 2 Z M 0 1 "/>
</clipPath>
<clipPath id="clip14">
  <path d="M 0.238281 0.8125 C 0.4375 0.589844 0.679688 0.785156 0.832031 0.953125 C 0.765625 1.042969 0.691406 1.160156 0.597656 1.222656 C 0.339844 1.398438 0.0507812 1.054688 0.238281 0.8125 Z M 0.238281 0.8125 "/>
</clipPath>
<clipPath id="clip15">
  <path d="M 0 0 L 1 0 L 1 1 L 0 1 Z M 0 0 "/>
</clipPath>
<clipPath id="clip16">
  <path d="M 0.238281 0.8125 C 0.4375 0.589844 0.679688 0.785156 0.832031 0.953125 C 0.765625 1.042969 0.691406 1.160156 0.597656 1.222656 C 0.339844 1.398438 0.0507812 1.054688 0.238281 0.8125 Z M 0.238281 0.8125 "/>
</clipPath>
<clipPath id="clip17">
  <path d="M 0 1 L 1 1 L 1 2 L 0 2 Z M 0 1 "/>
</clipPath>
<clipPath id="clip18">
  <path d="M 0.238281 0.8125 C 0.4375 0.589844 0.679688 0.785156 0.832031 0.953125 C 0.765625 1.042969 0.691406 1.160156 0.597656 1.222656 C 0.339844 1.398438 0.0507812 1.054688 0.238281 0.8125 Z M 0.238281 0.8125 "/>
</clipPath>
<clipPath id="clip19">
  <path d="M 0 0 L 1 0 L 1 1 L 0 1 Z M 0 0 "/>
</clipPath>
<clipPath id="clip20">
  <path d="M 0.238281 0.8125 C 0.4375 0.589844 0.679688 0.785156 0.832031 0.953125 C 0.765625 1.042969 0.691406 1.160156 0.597656 1.222656 C 0.339844 1.398438 0.0507812 1.054688 0.238281 0.8125 Z M 0.238281 0.8125 "/>
</clipPath>
<clipPath id="clip21">
  <path d="M 0 1 L 1 1 L 1 2 L 0 2 Z M 0 1 "/>
</clipPath>
<clipPath id="clip22">
  <path d="M 0.238281 0.8125 C 0.4375 0.589844 0.679688 0.785156 0.832031 0.953125 C 0.765625 1.042969 0.691406 1.160156 0.597656 1.222656 C 0.339844 1.398438 0.0507812 1.054688 0.238281 0.8125 Z M 0.238281 0.8125 "/>
</clipPath>
<clipPath id="clip23">
  <path d="M 1 0 L 2 0 L 2 2 L 1 2 Z M 1 0 "/>
</clipPath>
<clipPath id="clip24">
  <path d="M 1.792969 1.152344 C 1.589844 1.375 1.351562 1.179688 1.199219 1.011719 C 1.261719 0.921875 1.339844 0.804688 1.429688 0.742188 C 1.691406 0.566406 1.976562 0.910156 1.792969 1.152344 Z M 1.792969 1.152344 "/>
</clipPath>
<clipPath id="clip25">
  <path d="M 1 0 L 2 0 L 2 1 L 1 1 Z M 1 0 "/>
</clipPath>
<clipPath id="clip26">
  <path d="M 1.792969 1.152344 C 1.589844 1.375 1.351562 1.179688 1.199219 1.011719 C 1.261719 0.921875 1.339844 0.804688 1.429688 0.742188 C 1.691406 0.566406 1.976562 0.910156 1.792969 1.152344 Z M 1.792969 1.152344 "/>
</clipPath>
<clipPath id="clip27">
  <path d="M 1 1 L 2 1 L 2 2 L 1 2 Z M 1 1 "/>
</clipPath>
<clipPath id="clip28">
  <path d="M 1.792969 1.152344 C 1.589844 1.375 1.351562 1.179688 1.199219 1.011719 C 1.261719 0.921875 1.339844 0.804688 1.429688 0.742188 C 1.691406 0.566406 1.976562 0.910156 1.792969 1.152344 Z M 1.792969 1.152344 "/>
</clipPath>
<clipPath id="clip29">
  <path d="M 1 0 L 2 0 L 2 2 L 1 2 Z M 1 0 "/>
</clipPath>
<clipPath id="clip30">
  <path d="M 1.792969 1.152344 C 1.589844 1.375 1.351562 1.179688 1.199219 1.011719 C 1.261719 0.921875 1.339844 0.804688 1.429688 0.742188 C 1.691406 0.566406 1.976562 0.910156 1.792969 1.152344 Z M 1.792969 1.152344 "/>
</clipPath>
<clipPath id="clip31">
  <path d="M 1 0 L 2 0 L 2 1 L 1 1 Z M 1 0 "/>
</clipPath>
<clipPath id="clip32">
  <path d="M 1.792969 1.152344 C 1.589844 1.375 1.351562 1.179688 1.199219 1.011719 C 1.261719 0.921875 1.339844 0.804688 1.429688 0.742188 C 1.691406 0.566406 1.976562 0.910156 1.792969 1.152344 Z M 1.792969 1.152344 "/>
</clipPath>
<clipPath id="clip33">
  <path d="M 1 1 L 2 1 L 2 2 L 1 2 Z M 1 1 "/>
</clipPath>
<clipPath id="clip34">
  <path d="M 1.792969 1.152344 C 1.589844 1.375 1.351562 1.179688 1.199219 1.011719 C 1.261719 0.921875 1.339844 0.804688 1.429688 0.742188 C 1.691406 0.566406 1.976562 0.910156 1.792969 1.152344 Z M 1.792969 1.152344 "/>
</clipPath>
<clipPath id="clip35">
  <path d="M 1 0 L 2 0 L 2 1 L 1 1 Z M 1 0 "/>
</clipPath>
<clipPath id="clip36">
  <path d="M 1.792969 1.152344 C 1.589844 1.375 1.351562 1.179688 1.199219 1.011719 C 1.261719 0.921875 1.339844 0.804688 1.429688 0.742188 C 1.691406 0.566406 1.976562 0.910156 1.792969 1.152344 Z M 1.792969 1.152344 "/>
</clipPath>
<clipPath id="clip37">
  <path d="M 1 1 L 2 1 L 2 2 L 1 2 Z M 1 1 "/>
</clipPath>
<clipPath id="clip38">
  <path d="M 1.792969 1.152344 C 1.589844 1.375 1.351562 1.179688 1.199219 1.011719 C 1.261719 0.921875 1.339844 0.804688 1.429688 0.742188 C 1.691406 0.566406 1.976562 0.910156 1.792969 1.152344 Z M 1.792969 1.152344 "/>
</clipPath>
<clipPath id="clip39">
  <path d="M 1 0 L 2 0 L 2 1 L 1 1 Z M 1 0 "/>
</clipPath>
<clipPath id="clip40">
  <path d="M 1.792969 1.152344 C 1.589844 1.375 1.351562 1.179688 1.199219 1.011719 C 1.261719 0.921875 1.339844 0.804688 1.429688 0.742188 C 1.691406 0.566406 1.976562 0.910156 1.792969 1.152344 Z M 1.792969 1.152344 "/>
</clipPath>
<clipPath id="clip41">
  <path d="M 1 1 L 2 1 L 2 2 L 1 2 Z M 1 1 "/>
</clipPath>
<clipPath id="clip42">
  <path d="M 1.792969 1.152344 C 1.589844 1.375 1.351562 1.179688 1.199219 1.011719 C 1.261719 0.921875 1.339844 0.804688 1.429688 0.742188 C 1.691406 0.566406 1.976562 0.910156 1.792969 1.152344 Z M 1.792969 1.152344 "/>
</clipPath>
<clipPath id="clip43">
  <path d="M 1 0 L 2 0 L 2 1 L 1 1 Z M 1 0 "/>
</clipPath>
<clipPath id="clip44">
  <path d="M 1.792969 1.152344 C 1.589844 1.375 1.351562 1.179688 1.199219 1.011719 C 1.261719 0.921875 1.339844 0.804688 1.429688 0.742188 C 1.691406 0.566406 1.976562 0.910156 1.792969 1.152344 Z M 1.792969 1.152344 "/>
</clipPath>
<clipPath id="clip45">
  <path d="M 1 1 L 2 1 L 2 2 L 1 2 Z M 1 1 "/>
</clipPath>
<clipPath id="clip46">
  <path d="M 1.792969 1.152344 C 1.589844 1.375 1.351562 1.179688 1.199219 1.011719 C 1.261719 0.921875 1.339844 0.804688 1.429688 0.742188 C 1.691406 0.566406 1.976562 0.910156 1.792969 1.152344 Z M 1.792969 1.152344 "/>
</clipPath>
<clipPath id="clip47">
  <path d="M 1 0 L 2 0 L 2 1 L 1 1 Z M 1 0 "/>
</clipPath>
<clipPath id="clip48">
  <path d="M 1.792969 1.152344 C 1.589844 1.375 1.351562 1.179688 1.199219 1.011719 C 1.261719 0.921875 1.339844 0.804688 1.429688 0.742188 C 1.691406 0.566406 1.976562 0.910156 1.792969 1.152344 Z M 1.792969 1.152344 "/>
</clipPath>
<clipPath id="clip49">
  <path d="M 1 1 L 2 1 L 2 2 L 1 2 Z M 1 1 "/>
</clipPath>
<clipPath id="clip50">
  <path d="M 1.792969 1.152344 C 1.589844 1.375 1.351562 1.179688 1.199219 1.011719 C 1.261719 0.921875 1.339844 0.804688 1.429688 0.742188 C 1.691406 0.566406 1.976562 0.910156 1.792969 1.152344 Z M 1.792969 1.152344 "/>
</clipPath>
</defs>
<g id="surface1">
<path style="fill-rule:nonzero;fill:rgb(98.431373%,76.078433%,6.27451%);fill-opacity:1;stroke-width:1;stroke-linecap:butt;stroke-linejoin:miter;stroke:rgb(0%,0%,0%);stroke-opacity:1;stroke-miterlimit:10;" d="M 226.293755 366.498631 C 229.829594 364.192224 231.008208 360.732613 233.365434 358.426205 L 337.083405 226.96098 L 358.298445 241.952628 L 360.655671 169.300793 L 287.581646 187.752053 L 311.153913 206.203313 L 271.08106 252.331462 C 218.043461 216.582146 216.864848 193.518072 160.291409 179.679627 C 84.860158 164.687978 17.6792 217.73535 18.857813 289.233981 C 18.857813 401.094743 153.21973 447.222893 226.293755 366.498631 " transform="matrix(0.00331428,0,0,0.0033873,0,0.000745732)"/>
<g clip-path="url(#clip1)" clip-rule="nonzero">
<g clip-path="url(#clip2)" clip-rule="nonzero">
<path style=" stroke:none;fill-rule:nonzero;fill:rgb(0%,0%,0%);fill-opacity:1;" d="M 0.335938 0.765625 C 0.367188 0.777344 0.402344 0.773438 0.433594 0.773438 C 0.441406 0.773438 0.449219 0.773438 0.453125 0.78125 C 0.457031 0.78125 0.460938 0.777344 0.464844 0.78125 C 0.472656 0.78125 0.480469 0.78125 0.488281 0.78125 C 0.492188 0.78125 0.492188 0.78125 0.496094 0.78125 C 0.511719 0.78125 0.527344 0.78125 0.535156 0.769531 C 0.539062 0.765625 0.542969 0.761719 0.546875 0.761719 C 0.546875 0.761719 0.550781 0.761719 0.550781 0.761719 C 0.554688 0.769531 0.554688 0.777344 0.558594 0.785156 C 0.558594 0.792969 0.554688 0.796875 0.550781 0.804688 C 0.550781 0.804688 0.546875 0.804688 0.546875 0.804688 C 0.535156 0.8125 0.523438 0.816406 0.511719 0.820312 C 0.5 0.828125 0.5 0.832031 0.511719 0.839844 C 0.519531 0.84375 0.527344 0.847656 0.53125 0.851562 C 0.53125 0.867188 0.535156 0.855469 0.539062 0.855469 C 0.542969 0.851562 0.546875 0.847656 0.550781 0.84375 C 0.554688 0.839844 0.554688 0.832031 0.558594 0.828125 C 0.5625 0.824219 0.566406 0.816406 0.570312 0.8125 C 0.582031 0.808594 0.589844 0.8125 0.597656 0.816406 C 0.601562 0.820312 0.605469 0.828125 0.617188 0.828125 C 0.625 0.824219 0.628906 0.832031 0.628906 0.839844 C 0.628906 0.847656 0.632812 0.855469 0.636719 0.863281 C 0.640625 0.871094 0.636719 0.875 0.632812 0.878906 C 0.632812 0.882812 0.628906 0.882812 0.625 0.882812 C 0.605469 0.886719 0.589844 0.890625 0.582031 0.910156 C 0.578125 0.914062 0.574219 0.914062 0.570312 0.917969 C 0.554688 0.925781 0.539062 0.9375 0.523438 0.945312 C 0.511719 0.953125 0.511719 0.96875 0.5 0.976562 C 0.480469 0.984375 0.476562 0.996094 0.476562 1.015625 C 0.476562 1.023438 0.472656 1.027344 0.464844 1.027344 C 0.460938 1.027344 0.457031 1.019531 0.457031 1.015625 C 0.453125 1 0.445312 0.996094 0.433594 1.003906 C 0.421875 1.003906 0.40625 1 0.398438 1.011719 C 0.390625 1.015625 0.390625 1.023438 0.386719 1.027344 C 0.386719 1.039062 0.382812 1.046875 0.390625 1.054688 C 0.402344 1.058594 0.40625 1.050781 0.414062 1.046875 C 0.417969 1.042969 0.425781 1.039062 0.433594 1.046875 C 0.4375 1.058594 0.429688 1.066406 0.421875 1.074219 C 0.429688 1.078125 0.433594 1.074219 0.441406 1.078125 C 0.457031 1.089844 0.445312 1.101562 0.445312 1.113281 C 0.445312 1.117188 0.445312 1.117188 0.445312 1.121094 C 0.4375 1.125 0.429688 1.121094 0.425781 1.113281 C 0.421875 1.101562 0.410156 1.097656 0.402344 1.09375 C 0.398438 1.09375 0.394531 1.089844 0.394531 1.089844 C 0.382812 1.078125 0.367188 1.082031 0.351562 1.074219 C 0.339844 1.066406 0.335938 1.058594 0.332031 1.042969 C 0.328125 1.027344 0.320312 1.007812 0.308594 0.996094 C 0.304688 0.996094 0.304688 0.996094 0.300781 0.996094 C 0.292969 0.988281 0.296875 0.976562 0.292969 0.972656 C 0.28125 0.953125 0.285156 0.933594 0.292969 0.914062 C 0.300781 0.90625 0.304688 0.898438 0.3125 0.890625 C 0.316406 0.886719 0.320312 0.882812 0.3125 0.878906 C 0.308594 0.871094 0.3125 0.859375 0.3125 0.851562 C 0.308594 0.84375 0.324219 0.835938 0.3125 0.828125 C 0.300781 0.824219 0.292969 0.820312 0.28125 0.820312 C 0.273438 0.824219 0.269531 0.820312 0.261719 0.824219 C 0.253906 0.824219 0.25 0.828125 0.242188 0.835938 C 0.238281 0.835938 0.234375 0.832031 0.230469 0.828125 C 0.226562 0.824219 0.21875 0.820312 0.214844 0.816406 C 0.214844 0.816406 0.214844 0.8125 0.214844 0.8125 C 0.214844 0.8125 0.21875 0.808594 0.21875 0.808594 C 0.226562 0.792969 0.242188 0.796875 0.25 0.792969 C 0.257812 0.789062 0.261719 0.789062 0.261719 0.78125 C 0.277344 0.761719 0.316406 0.753906 0.335938 0.765625 Z M 0.335938 0.765625 "/>
</g>
</g>
<g clip-path="url(#clip3)" clip-rule="nonzero">
<g clip-path="url(#clip4)" clip-rule="nonzero">
<path style=" stroke:none;fill-rule:nonzero;fill:rgb(0%,0%,0%);fill-opacity:1;" d="M 0.835938 0.738281 C 0.832031 0.738281 0.828125 0.742188 0.824219 0.742188 C 0.816406 0.773438 0.796875 0.789062 0.765625 0.792969 C 0.765625 0.792969 0.761719 0.796875 0.757812 0.796875 C 0.75 0.808594 0.734375 0.804688 0.726562 0.816406 C 0.71875 0.824219 0.714844 0.832031 0.703125 0.832031 C 0.699219 0.835938 0.691406 0.832031 0.6875 0.828125 C 0.675781 0.8125 0.671875 0.796875 0.6875 0.785156 C 0.691406 0.78125 0.695312 0.777344 0.691406 0.773438 C 0.6875 0.757812 0.675781 0.753906 0.664062 0.753906 C 0.660156 0.753906 0.660156 0.75 0.65625 0.746094 C 0.65625 0.738281 0.660156 0.734375 0.667969 0.730469 C 0.667969 0.730469 0.671875 0.730469 0.671875 0.730469 C 0.679688 0.730469 0.6875 0.730469 0.691406 0.730469 C 0.695312 0.730469 0.699219 0.730469 0.703125 0.730469 C 0.738281 0.726562 0.773438 0.726562 0.808594 0.722656 C 0.820312 0.722656 0.824219 0.734375 0.835938 0.734375 Z M 0.835938 0.738281 "/>
<path style=" stroke:none;fill-rule:nonzero;fill:rgb(0%,0%,0%);fill-opacity:1;" d="M 0.496094 0.785156 C 0.492188 0.785156 0.488281 0.785156 0.488281 0.785156 C 0.480469 0.785156 0.472656 0.78125 0.464844 0.785156 C 0.460938 0.78125 0.453125 0.792969 0.453125 0.78125 C 0.460938 0.777344 0.460938 0.769531 0.460938 0.765625 C 0.457031 0.761719 0.449219 0.769531 0.445312 0.765625 C 0.445312 0.757812 0.453125 0.757812 0.457031 0.753906 C 0.464844 0.75 0.476562 0.75 0.484375 0.753906 C 0.492188 0.765625 0.503906 0.761719 0.511719 0.757812 C 0.515625 0.757812 0.515625 0.757812 0.519531 0.757812 C 0.523438 0.78125 0.507812 0.78125 0.496094 0.785156 Z M 0.496094 0.785156 "/>
<path style=" stroke:none;fill-rule:nonzero;fill:rgb(0%,0%,0%);fill-opacity:1;" d="M 0.605469 0.742188 C 0.597656 0.738281 0.589844 0.742188 0.589844 0.730469 C 0.605469 0.726562 0.625 0.726562 0.644531 0.722656 C 0.648438 0.730469 0.65625 0.726562 0.65625 0.734375 C 0.65625 0.734375 0.65625 0.738281 0.65625 0.738281 C 0.648438 0.746094 0.636719 0.746094 0.628906 0.75 C 0.617188 0.75 0.613281 0.746094 0.605469 0.742188 Z M 0.605469 0.742188 "/>
<path style=" stroke:none;fill-rule:nonzero;fill:rgb(0%,0%,0%);fill-opacity:1;" d="M 0.664062 0.722656 C 0.664062 0.722656 0.664062 0.722656 0.664062 0.71875 C 0.675781 0.71875 0.6875 0.722656 0.695312 0.722656 C 0.703125 0.722656 0.703125 0.726562 0.703125 0.730469 C 0.703125 0.734375 0.699219 0.734375 0.695312 0.734375 C 0.691406 0.730469 0.6875 0.730469 0.6875 0.730469 C 0.679688 0.730469 0.671875 0.730469 0.664062 0.722656 Z M 0.664062 0.722656 "/>
<path style=" stroke:none;fill-rule:nonzero;fill:rgb(0%,0%,0%);fill-opacity:1;" d="M 0.214844 0.816406 C 0.222656 0.816406 0.230469 0.820312 0.230469 0.828125 C 0.230469 0.835938 0.222656 0.835938 0.21875 0.835938 C 0.214844 0.828125 0.226562 0.832031 0.226562 0.828125 C 0.226562 0.824219 0.214844 0.824219 0.214844 0.816406 Z M 0.214844 0.816406 "/>
<path style=" stroke:none;fill-rule:nonzero;fill:rgb(0%,0%,0%);fill-opacity:1;" d="M 0.5 0.753906 C 0.496094 0.753906 0.492188 0.753906 0.492188 0.746094 C 0.496094 0.742188 0.5 0.738281 0.503906 0.742188 C 0.507812 0.746094 0.511719 0.742188 0.511719 0.75 C 0.507812 0.753906 0.503906 0.75 0.5 0.753906 Z M 0.5 0.753906 "/>
<path style=" stroke:none;fill-rule:nonzero;fill:rgb(0%,0%,0%);fill-opacity:1;" d="M 0.617188 0.75 C 0.613281 0.75 0.609375 0.75 0.605469 0.75 C 0.605469 0.746094 0.605469 0.742188 0.605469 0.742188 C 0.613281 0.730469 0.617188 0.75 0.625 0.746094 C 0.625 0.75 0.621094 0.753906 0.617188 0.75 Z M 0.617188 0.75 "/>
<path style=" stroke:none;fill-rule:nonzero;fill:rgb(0%,0%,0%);fill-opacity:1;" d="M 0.835938 0.738281 L 0.835938 0.734375 C 0.839844 0.730469 0.847656 0.730469 0.851562 0.730469 C 0.847656 0.738281 0.84375 0.738281 0.835938 0.738281 Z M 0.835938 0.738281 "/>
</g>
</g>
<g clip-path="url(#clip5)" clip-rule="nonzero">
<g clip-path="url(#clip6)" clip-rule="nonzero">
<path style=" stroke:none;fill-rule:nonzero;fill:rgb(0%,0%,0%);fill-opacity:1;" d="M 0.566406 1.460938 C 0.558594 1.464844 0.558594 1.46875 0.558594 1.476562 C 0.558594 1.488281 0.550781 1.484375 0.546875 1.484375 C 0.542969 1.480469 0.535156 1.476562 0.53125 1.472656 C 0.527344 1.46875 0.523438 1.464844 0.519531 1.457031 C 0.515625 1.445312 0.523438 1.429688 0.511719 1.417969 C 0.5 1.410156 0.507812 1.390625 0.507812 1.375 C 0.5 1.351562 0.507812 1.324219 0.503906 1.300781 C 0.503906 1.289062 0.5 1.28125 0.488281 1.273438 C 0.464844 1.257812 0.460938 1.230469 0.445312 1.207031 C 0.445312 1.191406 0.445312 1.175781 0.457031 1.160156 C 0.464844 1.152344 0.460938 1.140625 0.464844 1.132812 C 0.464844 1.125 0.46875 1.121094 0.472656 1.117188 C 0.480469 1.109375 0.488281 1.101562 0.5 1.105469 C 0.511719 1.105469 0.523438 1.105469 0.535156 1.109375 C 0.542969 1.113281 0.550781 1.113281 0.554688 1.117188 C 0.566406 1.132812 0.589844 1.132812 0.605469 1.148438 C 0.613281 1.160156 0.609375 1.179688 0.628906 1.179688 C 0.636719 1.1875 0.648438 1.191406 0.660156 1.195312 C 0.6875 1.203125 0.691406 1.21875 0.683594 1.242188 C 0.671875 1.25 0.667969 1.261719 0.667969 1.277344 C 0.667969 1.296875 0.660156 1.3125 0.640625 1.320312 C 0.628906 1.324219 0.625 1.335938 0.625 1.34375 C 0.621094 1.355469 0.613281 1.363281 0.609375 1.375 C 0.605469 1.382812 0.601562 1.386719 0.59375 1.386719 C 0.582031 1.382812 0.589844 1.386719 0.589844 1.390625 C 0.59375 1.398438 0.589844 1.40625 0.578125 1.410156 C 0.558594 1.421875 0.5625 1.441406 0.566406 1.460938 Z M 0.566406 1.460938 "/>
<path style=" stroke:none;fill-rule:nonzero;fill:rgb(0%,0%,0%);fill-opacity:1;" d="M 0.566406 1.488281 C 0.570312 1.492188 0.574219 1.492188 0.578125 1.496094 C 0.570312 1.5 0.566406 1.496094 0.558594 1.496094 C 0.558594 1.492188 0.558594 1.492188 0.558594 1.492188 C 0.558594 1.484375 0.5625 1.484375 0.566406 1.488281 Z M 0.566406 1.488281 "/>
<path style=" stroke:none;fill-rule:nonzero;fill:rgb(0%,0%,0%);fill-opacity:1;" d="M 0.566406 1.488281 C 0.5625 1.488281 0.5625 1.488281 0.558594 1.492188 C 0.554688 1.492188 0.542969 1.496094 0.546875 1.484375 C 0.550781 1.480469 0.554688 1.484375 0.558594 1.476562 C 0.5625 1.480469 0.5625 1.484375 0.566406 1.488281 Z M 0.566406 1.488281 "/>
</g>
</g>
<g clip-path="url(#clip7)" clip-rule="nonzero">
<g clip-path="url(#clip8)" clip-rule="nonzero">
<path style=" stroke:none;fill-rule:nonzero;fill:rgb(0%,0%,0%);fill-opacity:1;" d="M 0.632812 0.902344 C 0.628906 0.894531 0.617188 0.898438 0.609375 0.898438 C 0.613281 0.890625 0.625 0.890625 0.621094 0.878906 C 0.625 0.878906 0.628906 0.878906 0.628906 0.875 C 0.628906 0.882812 0.628906 0.890625 0.636719 0.890625 C 0.640625 0.894531 0.636719 0.898438 0.632812 0.902344 Z M 0.632812 0.902344 "/>
<path style=" stroke:none;fill-rule:nonzero;fill:rgb(0%,0%,0%);fill-opacity:1;" d="M 0.253906 0.78125 C 0.257812 0.785156 0.261719 0.785156 0.265625 0.789062 C 0.265625 0.792969 0.257812 0.796875 0.253906 0.796875 C 0.25 0.792969 0.242188 0.796875 0.242188 0.792969 C 0.242188 0.785156 0.253906 0.789062 0.253906 0.78125 Z M 0.253906 0.78125 "/>
</g>
</g>
<g clip-path="url(#clip9)" clip-rule="nonzero">
<g clip-path="url(#clip10)" clip-rule="nonzero">
<path style=" stroke:none;fill-rule:nonzero;fill:rgb(0%,0%,0%);fill-opacity:1;" d="M 0.308594 0.996094 C 0.316406 1 0.316406 1.007812 0.316406 1.015625 C 0.304688 1.023438 0.304688 1.015625 0.304688 1.007812 C 0.304688 1.003906 0.304688 1 0.304688 0.996094 C 0.304688 0.996094 0.308594 0.996094 0.308594 0.996094 Z M 0.308594 0.996094 "/>
</g>
</g>
<g clip-path="url(#clip11)" clip-rule="nonzero">
<g clip-path="url(#clip12)" clip-rule="nonzero">
<path style=" stroke:none;fill-rule:nonzero;fill:rgb(0%,0%,0%);fill-opacity:1;" d="M 0.507812 0.90625 C 0.515625 0.914062 0.515625 0.917969 0.507812 0.921875 C 0.503906 0.925781 0.5 0.921875 0.496094 0.917969 C 0.496094 0.910156 0.503906 0.910156 0.507812 0.90625 Z M 0.507812 0.90625 "/>
<path style=" stroke:none;fill-rule:nonzero;fill:rgb(0%,0%,0%);fill-opacity:1;" d="M 0.496094 0.902344 C 0.496094 0.90625 0.492188 0.90625 0.492188 0.90625 C 0.484375 0.90625 0.472656 0.914062 0.480469 0.898438 C 0.484375 0.898438 0.492188 0.902344 0.492188 0.894531 C 0.496094 0.894531 0.496094 0.898438 0.496094 0.902344 Z M 0.496094 0.902344 "/>
<path style=" stroke:none;fill-rule:nonzero;fill:rgb(0%,0%,0%);fill-opacity:1;" d="M 0.539062 0.769531 C 0.535156 0.769531 0.53125 0.765625 0.527344 0.761719 C 0.535156 0.761719 0.539062 0.753906 0.546875 0.761719 C 0.550781 0.761719 0.550781 0.761719 0.550781 0.761719 C 0.546875 0.765625 0.546875 0.765625 0.546875 0.765625 C 0.546875 0.765625 0.542969 0.765625 0.539062 0.769531 Z M 0.539062 0.769531 "/>
<path style=" stroke:none;fill-rule:nonzero;fill:rgb(0%,0%,0%);fill-opacity:1;" d="M 0.558594 0.800781 C 0.5625 0.800781 0.566406 0.804688 0.5625 0.804688 C 0.558594 0.808594 0.550781 0.8125 0.546875 0.804688 C 0.546875 0.800781 0.546875 0.800781 0.546875 0.796875 C 0.550781 0.796875 0.554688 0.796875 0.558594 0.800781 Z M 0.558594 0.800781 "/>
<path style=" stroke:none;fill-rule:nonzero;fill:rgb(0%,0%,0%);fill-opacity:1;" d="M 0.277344 0.816406 C 0.273438 0.824219 0.269531 0.824219 0.261719 0.820312 C 0.265625 0.808594 0.273438 0.820312 0.277344 0.816406 Z M 0.277344 0.816406 "/>
</g>
</g>
<g clip-path="url(#clip13)" clip-rule="nonzero">
<g clip-path="url(#clip14)" clip-rule="nonzero">
<path style=" stroke:none;fill-rule:nonzero;fill:rgb(0%,0%,0%);fill-opacity:1;" d="M 0.457031 1.121094 C 0.453125 1.136719 0.449219 1.121094 0.441406 1.121094 C 0.441406 1.121094 0.441406 1.117188 0.445312 1.117188 C 0.449219 1.117188 0.449219 1.121094 0.457031 1.121094 Z M 0.457031 1.121094 "/>
</g>
</g>
<g clip-path="url(#clip15)" clip-rule="nonzero">
<g clip-path="url(#clip16)" clip-rule="nonzero">
<path style=" stroke:none;fill-rule:nonzero;fill:rgb(0%,0%,0%);fill-opacity:1;" d="M 0.664062 0.722656 C 0.671875 0.726562 0.683594 0.71875 0.691406 0.730469 C 0.683594 0.734375 0.679688 0.734375 0.671875 0.734375 L 0.667969 0.734375 C 0.664062 0.734375 0.660156 0.738281 0.65625 0.734375 C 0.652344 0.730469 0.644531 0.734375 0.644531 0.722656 C 0.648438 0.722656 0.65625 0.722656 0.664062 0.722656 Z M 0.664062 0.722656 "/>
<path style=" stroke:none;fill-rule:nonzero;fill:rgb(0%,0%,0%);fill-opacity:1;" d="M 0.671875 0.734375 C 0.675781 0.726562 0.683594 0.730469 0.691406 0.730469 C 0.691406 0.730469 0.695312 0.730469 0.695312 0.734375 C 0.6875 0.734375 0.679688 0.746094 0.671875 0.734375 Z M 0.671875 0.734375 "/>
<path style=" stroke:none;fill-rule:nonzero;fill:rgb(0%,0%,0%);fill-opacity:1;" d="M 0.558594 0.761719 C 0.558594 0.757812 0.558594 0.753906 0.5625 0.746094 C 0.5625 0.746094 0.566406 0.75 0.570312 0.75 C 0.570312 0.753906 0.570312 0.757812 0.570312 0.761719 C 0.566406 0.761719 0.5625 0.761719 0.558594 0.761719 Z M 0.558594 0.761719 "/>
<path style=" stroke:none;fill-rule:nonzero;fill:rgb(0%,0%,0%);fill-opacity:1;" d="M 0.554688 0.746094 C 0.550781 0.746094 0.550781 0.746094 0.546875 0.75 C 0.542969 0.75 0.539062 0.75 0.539062 0.742188 C 0.546875 0.742188 0.550781 0.742188 0.554688 0.746094 Z M 0.554688 0.746094 "/>
<path style=" stroke:none;fill-rule:nonzero;fill:rgb(0%,0%,0%);fill-opacity:1;" d="M 0.632812 0.769531 C 0.640625 0.777344 0.636719 0.792969 0.648438 0.792969 C 0.648438 0.808594 0.625 0.789062 0.632812 0.808594 C 0.613281 0.820312 0.601562 0.808594 0.589844 0.800781 C 0.605469 0.792969 0.609375 0.785156 0.597656 0.777344 C 0.589844 0.773438 0.582031 0.773438 0.574219 0.773438 C 0.566406 0.773438 0.566406 0.769531 0.570312 0.765625 C 0.578125 0.761719 0.582031 0.757812 0.589844 0.757812 C 0.597656 0.765625 0.609375 0.765625 0.621094 0.761719 C 0.625 0.765625 0.628906 0.765625 0.632812 0.769531 Z M 0.632812 0.769531 "/>
</g>
</g>
<g clip-path="url(#clip17)" clip-rule="nonzero">
<g clip-path="url(#clip18)" clip-rule="nonzero">
<path style=" stroke:none;fill-rule:nonzero;fill:rgb(0%,0%,0%);fill-opacity:1;" d="M 0.46875 1.128906 C 0.464844 1.128906 0.464844 1.117188 0.457031 1.121094 C 0.464844 1.109375 0.46875 1.128906 0.476562 1.121094 C 0.476562 1.125 0.472656 1.128906 0.46875 1.128906 Z M 0.46875 1.128906 "/>
</g>
</g>
<g clip-path="url(#clip19)" clip-rule="nonzero">
<g clip-path="url(#clip20)" clip-rule="nonzero">
<path style=" stroke:none;fill-rule:nonzero;fill:rgb(0%,0%,0%);fill-opacity:1;" d="M 0.558594 0.796875 C 0.558594 0.789062 0.5625 0.785156 0.566406 0.785156 C 0.574219 0.78125 0.578125 0.773438 0.585938 0.777344 C 0.582031 0.789062 0.570312 0.796875 0.558594 0.796875 Z M 0.558594 0.796875 "/>
</g>
</g>
<g clip-path="url(#clip21)" clip-rule="nonzero">
<g clip-path="url(#clip22)" clip-rule="nonzero">
<path style=" stroke:none;fill-rule:nonzero;fill:rgb(0%,0%,0%);fill-opacity:1;" d="M 0.480469 1.042969 C 0.484375 1.046875 0.488281 1.050781 0.492188 1.050781 C 0.492188 1.058594 0.484375 1.058594 0.480469 1.054688 C 0.472656 1.050781 0.464844 1.042969 0.457031 1.039062 C 0.464844 1.035156 0.472656 1.042969 0.480469 1.042969 Z M 0.480469 1.042969 "/>
<path style=" stroke:none;fill-rule:nonzero;fill:rgb(0%,0%,0%);fill-opacity:1;" d="M 0.503906 1.070312 C 0.503906 1.066406 0.503906 1.066406 0.5 1.066406 C 0.507812 1.046875 0.515625 1.0625 0.527344 1.0625 C 0.515625 1.066406 0.511719 1.066406 0.503906 1.070312 Z M 0.503906 1.070312 "/>
</g>
</g>
<path style="fill:none;stroke-width:1;stroke-linecap:butt;stroke-linejoin:miter;stroke:rgb(0%,0%,0%);stroke-opacity:1;stroke-miterlimit:10;" d="M 71.895412 239.646221 C 132.00469 173.913608 205.078715 231.573795 251.044634 281.161555 C 231.008208 307.685241 208.614555 342.281353 180.327836 360.732613 C 102.539358 412.626781 15.321973 311.144852 71.895412 239.646221 Z M 71.895412 239.646221 " transform="matrix(0.00331428,0,0,0.0033873,0,0.000745732)"/>
<path style="fill-rule:nonzero;fill:rgb(98.431373%,76.078433%,6.27451%);fill-opacity:1;stroke-width:1;stroke-linecap:butt;stroke-linejoin:miter;stroke:rgb(0%,0%,0%);stroke-opacity:1;stroke-miterlimit:10;" d="M 385.406551 213.122535 C 383.049324 216.582146 380.692098 218.888554 378.334871 221.194961 L 274.6169 352.660187 L 253.401861 337.668538 L 251.044634 410.320373 L 324.118659 391.869113 L 301.725006 374.571057 L 340.619245 327.289704 C 393.656844 363.03902 394.835457 387.256299 451.408896 399.94154 C 528.018761 414.933188 594.021106 361.885816 592.842492 290.387185 C 592.842492 178.526423 459.659189 132.398274 385.406551 213.122535 " transform="matrix(0.00331428,0,0,0.0033873,0,0.000745732)"/>
<g clip-path="url(#clip23)" clip-rule="nonzero">
<g clip-path="url(#clip24)" clip-rule="nonzero">
<path style=" stroke:none;fill-rule:nonzero;fill:rgb(0%,0%,0%);fill-opacity:1;" d="M 1.613281 0.753906 C 1.625 0.753906 1.636719 0.753906 1.640625 0.757812 C 1.660156 0.78125 1.691406 0.761719 1.710938 0.777344 C 1.714844 0.78125 1.722656 0.777344 1.730469 0.777344 C 1.730469 0.777344 1.730469 0.777344 1.734375 0.78125 C 1.738281 0.773438 1.746094 0.773438 1.757812 0.777344 C 1.773438 0.785156 1.792969 0.78125 1.808594 0.789062 C 1.8125 0.785156 1.820312 0.785156 1.824219 0.785156 C 1.828125 0.785156 1.828125 0.785156 1.832031 0.785156 C 1.832031 0.789062 1.835938 0.789062 1.835938 0.785156 C 1.84375 0.78125 1.847656 0.78125 1.851562 0.785156 C 1.867188 0.789062 1.882812 0.792969 1.898438 0.796875 C 1.902344 0.796875 1.90625 0.796875 1.910156 0.804688 C 1.910156 0.808594 1.90625 0.808594 1.902344 0.808594 C 1.898438 0.8125 1.890625 0.808594 1.898438 0.816406 C 1.894531 0.828125 1.882812 0.832031 1.871094 0.832031 C 1.875 0.84375 1.890625 0.851562 1.875 0.863281 C 1.867188 0.867188 1.859375 0.859375 1.855469 0.855469 C 1.847656 0.847656 1.847656 0.835938 1.851562 0.824219 C 1.835938 0.828125 1.824219 0.835938 1.804688 0.835938 C 1.800781 0.835938 1.800781 0.839844 1.800781 0.84375 C 1.800781 0.847656 1.804688 0.847656 1.808594 0.847656 C 1.816406 0.851562 1.824219 0.855469 1.828125 0.867188 C 1.828125 0.867188 1.828125 0.871094 1.828125 0.871094 C 1.832031 0.882812 1.832031 0.890625 1.824219 0.902344 C 1.816406 0.90625 1.808594 0.910156 1.816406 0.921875 C 1.816406 0.925781 1.820312 0.929688 1.820312 0.933594 C 1.820312 0.9375 1.820312 0.941406 1.816406 0.941406 C 1.808594 0.945312 1.808594 0.941406 1.804688 0.9375 C 1.800781 0.929688 1.792969 0.917969 1.78125 0.917969 C 1.78125 0.921875 1.789062 0.921875 1.789062 0.925781 C 1.785156 0.9375 1.796875 0.949219 1.800781 0.957031 C 1.800781 0.984375 1.789062 0.996094 1.765625 1.003906 C 1.753906 1.007812 1.753906 1.011719 1.757812 1.023438 C 1.761719 1.023438 1.761719 1.027344 1.761719 1.027344 C 1.769531 1.042969 1.761719 1.050781 1.75 1.058594 C 1.742188 1.058594 1.738281 1.054688 1.734375 1.050781 C 1.730469 1.046875 1.726562 1.042969 1.722656 1.042969 C 1.71875 1.042969 1.71875 1.042969 1.71875 1.042969 C 1.714844 1.035156 1.714844 1.023438 1.703125 1.023438 C 1.6875 0.996094 1.683594 0.988281 1.660156 1.015625 C 1.648438 1.027344 1.652344 1.039062 1.648438 1.046875 C 1.636719 1.0625 1.632812 1.0625 1.625 1.046875 C 1.621094 1.035156 1.617188 1.019531 1.613281 1.007812 C 1.617188 1 1.609375 1 1.605469 1 C 1.59375 0.984375 1.578125 0.980469 1.5625 0.980469 C 1.554688 0.976562 1.550781 0.96875 1.539062 0.972656 C 1.535156 0.96875 1.53125 0.96875 1.527344 0.964844 C 1.53125 0.96875 1.539062 0.972656 1.546875 0.972656 C 1.550781 0.972656 1.554688 0.976562 1.554688 0.976562 C 1.570312 0.992188 1.570312 0.996094 1.550781 1.015625 C 1.535156 1.023438 1.523438 1.035156 1.503906 1.035156 C 1.5 1.03125 1.5 1.03125 1.5 1.03125 C 1.492188 1.003906 1.480469 0.984375 1.464844 0.964844 C 1.460938 0.960938 1.460938 0.957031 1.460938 0.953125 C 1.460938 0.949219 1.460938 0.945312 1.460938 0.945312 C 1.46875 0.925781 1.46875 0.925781 1.449219 0.925781 C 1.441406 0.925781 1.433594 0.917969 1.433594 0.90625 C 1.445312 0.894531 1.460938 0.890625 1.476562 0.898438 C 1.480469 0.890625 1.472656 0.890625 1.472656 0.886719 C 1.46875 0.882812 1.472656 0.878906 1.46875 0.878906 C 1.46875 0.878906 1.46875 0.882812 1.464844 0.886719 C 1.453125 0.882812 1.445312 0.882812 1.441406 0.898438 C 1.441406 0.902344 1.4375 0.902344 1.433594 0.902344 C 1.417969 0.921875 1.417969 0.921875 1.40625 0.898438 C 1.402344 0.894531 1.398438 0.886719 1.386719 0.890625 C 1.386719 0.894531 1.382812 0.894531 1.382812 0.894531 C 1.363281 0.886719 1.355469 0.886719 1.339844 0.90625 C 1.335938 0.914062 1.328125 0.921875 1.316406 0.921875 C 1.316406 0.921875 1.316406 0.921875 1.3125 0.921875 C 1.296875 0.914062 1.300781 0.902344 1.304688 0.886719 C 1.304688 0.882812 1.3125 0.882812 1.316406 0.882812 C 1.332031 0.882812 1.332031 0.878906 1.324219 0.867188 C 1.324219 0.863281 1.332031 0.859375 1.335938 0.859375 C 1.335938 0.855469 1.339844 0.855469 1.34375 0.851562 C 1.351562 0.847656 1.355469 0.84375 1.359375 0.839844 C 1.363281 0.839844 1.367188 0.839844 1.371094 0.835938 C 1.375 0.835938 1.375 0.835938 1.375 0.835938 C 1.378906 0.835938 1.382812 0.835938 1.386719 0.835938 C 1.402344 0.839844 1.414062 0.828125 1.421875 0.816406 C 1.421875 0.816406 1.417969 0.816406 1.417969 0.816406 C 1.414062 0.816406 1.410156 0.8125 1.410156 0.804688 C 1.410156 0.804688 1.410156 0.804688 1.410156 0.800781 C 1.410156 0.800781 1.410156 0.800781 1.410156 0.804688 C 1.40625 0.808594 1.40625 0.816406 1.402344 0.824219 C 1.398438 0.832031 1.394531 0.839844 1.386719 0.835938 C 1.378906 0.835938 1.378906 0.828125 1.378906 0.824219 C 1.375 0.824219 1.371094 0.828125 1.367188 0.824219 C 1.359375 0.824219 1.359375 0.820312 1.359375 0.8125 C 1.359375 0.8125 1.359375 0.808594 1.359375 0.808594 C 1.378906 0.792969 1.390625 0.773438 1.417969 0.769531 C 1.421875 0.769531 1.429688 0.769531 1.433594 0.773438 C 1.441406 0.773438 1.449219 0.777344 1.457031 0.777344 C 1.464844 0.78125 1.46875 0.78125 1.46875 0.789062 C 1.46875 0.796875 1.460938 0.792969 1.457031 0.792969 C 1.460938 0.792969 1.464844 0.796875 1.46875 0.792969 C 1.472656 0.789062 1.476562 0.785156 1.480469 0.785156 C 1.488281 0.785156 1.492188 0.78125 1.5 0.78125 C 1.503906 0.777344 1.507812 0.78125 1.515625 0.777344 C 1.523438 0.777344 1.53125 0.773438 1.542969 0.785156 C 1.542969 0.785156 1.542969 0.777344 1.542969 0.78125 C 1.539062 0.78125 1.539062 0.78125 1.539062 0.78125 C 1.535156 0.777344 1.535156 0.773438 1.539062 0.769531 C 1.539062 0.765625 1.542969 0.765625 1.546875 0.765625 C 1.554688 0.765625 1.558594 0.769531 1.566406 0.765625 C 1.570312 0.765625 1.578125 0.765625 1.582031 0.761719 C 1.589844 0.753906 1.601562 0.753906 1.613281 0.753906 Z M 1.613281 0.753906 "/>
</g>
</g>
<g clip-path="url(#clip25)" clip-rule="nonzero">
<g clip-path="url(#clip26)" clip-rule="nonzero">
<path style=" stroke:none;fill-rule:nonzero;fill:rgb(0%,0%,0%);fill-opacity:1;" d="M 1.40625 0.75 C 1.402344 0.742188 1.386719 0.757812 1.386719 0.746094 C 1.386719 0.734375 1.398438 0.742188 1.40625 0.738281 C 1.410156 0.742188 1.414062 0.738281 1.414062 0.742188 C 1.414062 0.746094 1.410156 0.75 1.40625 0.75 Z M 1.40625 0.75 "/>
<path style=" stroke:none;fill-rule:nonzero;fill:rgb(0%,0%,0%);fill-opacity:1;" d="M 1.507812 0.777344 C 1.496094 0.773438 1.496094 0.765625 1.507812 0.757812 C 1.507812 0.757812 1.511719 0.753906 1.511719 0.753906 C 1.515625 0.753906 1.515625 0.757812 1.515625 0.757812 C 1.507812 0.761719 1.5 0.765625 1.507812 0.777344 Z M 1.507812 0.777344 "/>
<path style=" stroke:none;fill-rule:nonzero;fill:rgb(0%,0%,0%);fill-opacity:1;" d="M 1.515625 0.757812 C 1.515625 0.757812 1.511719 0.757812 1.511719 0.753906 C 1.515625 0.753906 1.523438 0.75 1.527344 0.757812 C 1.523438 0.757812 1.519531 0.761719 1.515625 0.757812 Z M 1.515625 0.757812 "/>
</g>
</g>
<g clip-path="url(#clip27)" clip-rule="nonzero">
<g clip-path="url(#clip28)" clip-rule="nonzero">
<path style=" stroke:none;fill-rule:nonzero;fill:rgb(0%,0%,0%);fill-opacity:1;" d="M 1.984375 1.28125 C 1.976562 1.285156 1.972656 1.289062 1.964844 1.292969 C 1.964844 1.285156 1.96875 1.277344 1.972656 1.273438 C 1.976562 1.273438 1.980469 1.277344 1.984375 1.28125 Z M 1.984375 1.28125 "/>
<path style=" stroke:none;fill-rule:nonzero;fill:rgb(0%,0%,0%);fill-opacity:1;" d="M 1.925781 1.316406 C 1.917969 1.316406 1.914062 1.3125 1.921875 1.304688 C 1.929688 1.304688 1.9375 1.300781 1.945312 1.296875 C 1.949219 1.296875 1.949219 1.296875 1.949219 1.300781 C 1.945312 1.304688 1.9375 1.308594 1.933594 1.3125 C 1.929688 1.3125 1.929688 1.316406 1.925781 1.316406 Z M 1.925781 1.316406 "/>
<path style=" stroke:none;fill-rule:nonzero;fill:rgb(0%,0%,0%);fill-opacity:1;" d="M 1.949219 1.300781 C 1.949219 1.300781 1.945312 1.296875 1.945312 1.296875 C 1.949219 1.292969 1.953125 1.285156 1.957031 1.292969 C 1.957031 1.296875 1.953125 1.296875 1.949219 1.300781 Z M 1.949219 1.300781 "/>
</g>
</g>
<g clip-path="url(#clip29)" clip-rule="nonzero">
<g clip-path="url(#clip30)" clip-rule="nonzero">
<path style=" stroke:none;fill-rule:nonzero;fill:rgb(0%,0%,0%);fill-opacity:1;" d="M 1.304688 0.929688 C 1.3125 0.929688 1.3125 0.925781 1.316406 0.917969 C 1.320312 0.921875 1.328125 0.921875 1.332031 0.917969 C 1.339844 0.914062 1.351562 0.914062 1.363281 0.914062 C 1.371094 0.910156 1.378906 0.914062 1.378906 0.925781 C 1.382812 0.933594 1.394531 0.933594 1.398438 0.9375 C 1.417969 0.929688 1.4375 0.941406 1.457031 0.941406 C 1.460938 0.941406 1.460938 0.941406 1.464844 0.945312 C 1.464844 0.949219 1.460938 0.949219 1.460938 0.953125 C 1.460938 0.957031 1.460938 0.960938 1.464844 0.964844 C 1.476562 0.976562 1.480469 0.996094 1.488281 1.011719 C 1.492188 1.015625 1.496094 1.023438 1.5 1.027344 C 1.503906 1.03125 1.503906 1.03125 1.503906 1.03125 C 1.507812 1.039062 1.515625 1.035156 1.523438 1.035156 C 1.535156 1.035156 1.535156 1.039062 1.535156 1.050781 C 1.53125 1.058594 1.527344 1.066406 1.523438 1.070312 C 1.515625 1.082031 1.503906 1.089844 1.496094 1.105469 C 1.488281 1.109375 1.488281 1.117188 1.488281 1.125 C 1.492188 1.136719 1.496094 1.148438 1.492188 1.160156 C 1.46875 1.175781 1.464844 1.203125 1.453125 1.226562 C 1.441406 1.238281 1.433594 1.25 1.414062 1.25 C 1.402344 1.25 1.394531 1.246094 1.390625 1.230469 C 1.390625 1.230469 1.386719 1.226562 1.386719 1.222656 C 1.378906 1.203125 1.378906 1.183594 1.371094 1.167969 C 1.378906 1.140625 1.378906 1.117188 1.363281 1.089844 C 1.359375 1.082031 1.363281 1.070312 1.351562 1.066406 C 1.339844 1.058594 1.335938 1.0625 1.328125 1.066406 C 1.3125 1.066406 1.296875 1.070312 1.28125 1.058594 C 1.273438 1.042969 1.261719 1.03125 1.261719 1.015625 C 1.265625 1.007812 1.265625 1 1.265625 0.988281 C 1.265625 0.976562 1.273438 0.964844 1.28125 0.957031 C 1.292969 0.953125 1.292969 0.933594 1.304688 0.929688 Z M 1.304688 0.929688 "/>
</g>
</g>
<g clip-path="url(#clip31)" clip-rule="nonzero">
<g clip-path="url(#clip32)" clip-rule="nonzero">
<path style=" stroke:none;fill-rule:nonzero;fill:rgb(0%,0%,0%);fill-opacity:1;" d="M 1.398438 0.902344 C 1.390625 0.902344 1.386719 0.898438 1.382812 0.894531 C 1.382812 0.890625 1.382812 0.890625 1.386719 0.886719 C 1.390625 0.894531 1.398438 0.894531 1.398438 0.902344 Z M 1.398438 0.902344 "/>
<path style=" stroke:none;fill-rule:nonzero;fill:rgb(0%,0%,0%);fill-opacity:1;" d="M 1.703125 0.859375 C 1.699219 0.851562 1.703125 0.847656 1.703125 0.839844 C 1.710938 0.847656 1.710938 0.851562 1.703125 0.859375 Z M 1.703125 0.859375 "/>
<path style=" stroke:none;fill-rule:nonzero;fill:rgb(0%,0%,0%);fill-opacity:1;" d="M 1.910156 0.8125 C 1.90625 0.8125 1.902344 0.808594 1.898438 0.808594 C 1.902344 0.804688 1.90625 0.804688 1.910156 0.804688 C 1.910156 0.808594 1.914062 0.8125 1.910156 0.8125 Z M 1.910156 0.8125 "/>
<path style=" stroke:none;fill-rule:nonzero;fill:rgb(0%,0%,0%);fill-opacity:1;" d="M 1.375 0.828125 C 1.378906 0.828125 1.378906 0.832031 1.375 0.839844 C 1.375 0.839844 1.375 0.839844 1.375 0.835938 C 1.367188 0.832031 1.371094 0.832031 1.375 0.828125 Z M 1.375 0.828125 "/>
<path style=" stroke:none;fill-rule:nonzero;fill:rgb(0%,0%,0%);fill-opacity:1;" d="M 1.46875 0.960938 C 1.464844 0.960938 1.464844 0.960938 1.464844 0.964844 C 1.460938 0.960938 1.457031 0.957031 1.460938 0.953125 C 1.464844 0.957031 1.464844 0.957031 1.46875 0.960938 Z M 1.46875 0.960938 "/>
<path style=" stroke:none;fill-rule:nonzero;fill:rgb(0%,0%,0%);fill-opacity:1;" d="M 1.832031 0.878906 C 1.832031 0.875 1.828125 0.871094 1.828125 0.867188 C 1.828125 0.867188 1.828125 0.871094 1.828125 0.871094 C 1.832031 0.867188 1.835938 0.867188 1.835938 0.871094 C 1.839844 0.875 1.839844 0.875 1.835938 0.878906 C 1.835938 0.878906 1.835938 0.878906 1.832031 0.878906 Z M 1.832031 0.878906 "/>
</g>
</g>
<g clip-path="url(#clip33)" clip-rule="nonzero">
<g clip-path="url(#clip34)" clip-rule="nonzero">
<path style=" stroke:none;fill-rule:nonzero;fill:rgb(0%,0%,0%);fill-opacity:1;" d="M 1.722656 1.058594 C 1.714844 1.054688 1.71875 1.046875 1.71875 1.042969 C 1.722656 1.042969 1.722656 1.042969 1.722656 1.042969 C 1.722656 1.046875 1.722656 1.050781 1.722656 1.054688 C 1.722656 1.054688 1.722656 1.058594 1.722656 1.058594 Z M 1.722656 1.058594 "/>
<path style=" stroke:none;fill-rule:nonzero;fill:rgb(0%,0%,0%);fill-opacity:1;" d="M 1.867188 1.113281 C 1.875 1.101562 1.886719 1.117188 1.894531 1.117188 C 1.898438 1.121094 1.90625 1.125 1.914062 1.128906 C 1.914062 1.128906 1.910156 1.132812 1.910156 1.132812 C 1.910156 1.136719 1.90625 1.136719 1.902344 1.136719 C 1.898438 1.136719 1.898438 1.136719 1.898438 1.140625 C 1.890625 1.148438 1.882812 1.144531 1.875 1.140625 C 1.871094 1.132812 1.867188 1.128906 1.863281 1.121094 C 1.863281 1.117188 1.863281 1.117188 1.867188 1.113281 Z M 1.867188 1.113281 "/>
<path style=" stroke:none;fill-rule:nonzero;fill:rgb(0%,0%,0%);fill-opacity:1;" d="M 1.800781 1.183594 C 1.8125 1.179688 1.816406 1.160156 1.835938 1.167969 C 1.835938 1.167969 1.839844 1.160156 1.84375 1.15625 C 1.859375 1.148438 1.863281 1.148438 1.867188 1.164062 C 1.867188 1.167969 1.867188 1.171875 1.871094 1.171875 C 1.875 1.171875 1.878906 1.171875 1.878906 1.167969 C 1.878906 1.164062 1.882812 1.160156 1.886719 1.15625 C 1.894531 1.152344 1.890625 1.160156 1.894531 1.164062 C 1.898438 1.171875 1.898438 1.179688 1.898438 1.1875 C 1.90625 1.199219 1.910156 1.207031 1.917969 1.21875 C 1.914062 1.238281 1.902344 1.25 1.890625 1.261719 C 1.882812 1.277344 1.867188 1.277344 1.851562 1.277344 C 1.84375 1.277344 1.84375 1.269531 1.84375 1.265625 C 1.84375 1.261719 1.84375 1.257812 1.847656 1.253906 C 1.84375 1.257812 1.839844 1.257812 1.839844 1.257812 C 1.820312 1.238281 1.796875 1.253906 1.777344 1.257812 C 1.773438 1.257812 1.773438 1.261719 1.769531 1.261719 C 1.757812 1.261719 1.757812 1.253906 1.757812 1.246094 C 1.761719 1.238281 1.761719 1.230469 1.761719 1.226562 C 1.761719 1.203125 1.765625 1.195312 1.789062 1.1875 C 1.792969 1.1875 1.796875 1.183594 1.800781 1.183594 Z M 1.800781 1.183594 "/>
<path style=" stroke:none;fill-rule:nonzero;fill:rgb(0%,0%,0%);fill-opacity:1;" d="M 1.902344 1.136719 C 1.90625 1.136719 1.90625 1.132812 1.910156 1.132812 C 1.910156 1.140625 1.917969 1.144531 1.921875 1.148438 C 1.910156 1.152344 1.90625 1.140625 1.902344 1.136719 Z M 1.902344 1.136719 "/>
<path style=" stroke:none;fill-rule:nonzero;fill:rgb(0%,0%,0%);fill-opacity:1;" d="M 1.867188 1.289062 C 1.863281 1.292969 1.859375 1.300781 1.851562 1.296875 C 1.851562 1.296875 1.851562 1.296875 1.851562 1.292969 C 1.851562 1.285156 1.859375 1.289062 1.867188 1.289062 Z M 1.867188 1.289062 "/>
</g>
</g>
<g clip-path="url(#clip35)" clip-rule="nonzero">
<g clip-path="url(#clip36)" clip-rule="nonzero">
<path style=" stroke:none;fill-rule:nonzero;fill:rgb(0%,0%,0%);fill-opacity:1;" d="M 1.347656 0.851562 C 1.34375 0.855469 1.332031 0.851562 1.328125 0.855469 C 1.328125 0.847656 1.335938 0.835938 1.324219 0.828125 C 1.324219 0.824219 1.324219 0.824219 1.328125 0.824219 C 1.332031 0.824219 1.332031 0.824219 1.335938 0.824219 C 1.328125 0.835938 1.347656 0.839844 1.347656 0.851562 Z M 1.347656 0.851562 "/>
<path style=" stroke:none;fill-rule:nonzero;fill:rgb(0%,0%,0%);fill-opacity:1;" d="M 1.308594 0.851562 C 1.308594 0.839844 1.3125 0.835938 1.320312 0.832031 C 1.324219 0.832031 1.324219 0.835938 1.324219 0.839844 C 1.324219 0.847656 1.316406 0.847656 1.308594 0.851562 Z M 1.308594 0.851562 "/>
</g>
</g>
<g clip-path="url(#clip37)" clip-rule="nonzero">
<g clip-path="url(#clip38)" clip-rule="nonzero">
<path style=" stroke:none;fill-rule:nonzero;fill:rgb(0%,0%,0%);fill-opacity:1;" d="M 1.785156 1.074219 C 1.789062 1.074219 1.789062 1.066406 1.796875 1.066406 C 1.796875 1.070312 1.800781 1.070312 1.800781 1.074219 C 1.800781 1.078125 1.804688 1.085938 1.800781 1.09375 C 1.792969 1.09375 1.796875 1.101562 1.792969 1.101562 C 1.789062 1.105469 1.792969 1.117188 1.78125 1.113281 C 1.769531 1.113281 1.765625 1.105469 1.761719 1.097656 C 1.761719 1.09375 1.761719 1.089844 1.765625 1.089844 C 1.773438 1.089844 1.78125 1.082031 1.785156 1.074219 Z M 1.785156 1.074219 "/>
<path style=" stroke:none;fill-rule:nonzero;fill:rgb(0%,0%,0%);fill-opacity:1;" d="M 1.703125 1.074219 C 1.710938 1.070312 1.714844 1.070312 1.71875 1.078125 C 1.722656 1.082031 1.726562 1.082031 1.730469 1.085938 C 1.734375 1.085938 1.734375 1.085938 1.734375 1.089844 C 1.742188 1.09375 1.738281 1.105469 1.746094 1.109375 C 1.75 1.109375 1.75 1.109375 1.75 1.109375 C 1.75 1.109375 1.75 1.113281 1.746094 1.113281 C 1.746094 1.117188 1.746094 1.121094 1.746094 1.125 C 1.734375 1.125 1.730469 1.117188 1.726562 1.109375 C 1.722656 1.101562 1.71875 1.09375 1.707031 1.085938 C 1.707031 1.082031 1.703125 1.082031 1.703125 1.074219 Z M 1.703125 1.074219 "/>
<path style=" stroke:none;fill-rule:nonzero;fill:rgb(0%,0%,0%);fill-opacity:1;" d="M 1.734375 1.089844 C 1.734375 1.089844 1.730469 1.089844 1.730469 1.085938 C 1.730469 1.078125 1.726562 1.066406 1.722656 1.058594 C 1.722656 1.058594 1.722656 1.058594 1.722656 1.054688 C 1.726562 1.0625 1.738281 1.070312 1.742188 1.078125 C 1.742188 1.085938 1.746094 1.089844 1.734375 1.089844 Z M 1.734375 1.089844 "/>
<path style=" stroke:none;fill-rule:nonzero;fill:rgb(0%,0%,0%);fill-opacity:1;" d="M 1.800781 1.117188 C 1.800781 1.113281 1.800781 1.105469 1.804688 1.105469 C 1.804688 1.101562 1.808594 1.105469 1.808594 1.105469 C 1.8125 1.109375 1.816406 1.113281 1.8125 1.121094 C 1.8125 1.121094 1.8125 1.121094 1.8125 1.117188 C 1.8125 1.117188 1.808594 1.117188 1.808594 1.117188 C 1.808594 1.113281 1.804688 1.117188 1.800781 1.117188 Z M 1.800781 1.117188 "/>
<path style=" stroke:none;fill-rule:nonzero;fill:rgb(0%,0%,0%);fill-opacity:1;" d="M 1.777344 1.136719 C 1.769531 1.136719 1.761719 1.136719 1.757812 1.132812 C 1.757812 1.128906 1.757812 1.128906 1.761719 1.128906 C 1.765625 1.128906 1.773438 1.128906 1.777344 1.136719 Z M 1.777344 1.136719 "/>
<path style=" stroke:none;fill-rule:nonzero;fill:rgb(0%,0%,0%);fill-opacity:1;" d="M 1.808594 1.097656 C 1.8125 1.09375 1.820312 1.085938 1.824219 1.097656 C 1.820312 1.097656 1.8125 1.097656 1.808594 1.097656 Z M 1.808594 1.097656 "/>
<path style=" stroke:none;fill-rule:nonzero;fill:rgb(0%,0%,0%);fill-opacity:1;" d="M 1.800781 1.117188 C 1.804688 1.113281 1.808594 1.109375 1.808594 1.117188 C 1.804688 1.117188 1.808594 1.125 1.800781 1.125 C 1.796875 1.121094 1.800781 1.117188 1.800781 1.117188 Z M 1.800781 1.117188 "/>
<path style=" stroke:none;fill-rule:nonzero;fill:rgb(0%,0%,0%);fill-opacity:1;" d="M 1.761719 1.128906 C 1.757812 1.128906 1.757812 1.132812 1.757812 1.132812 C 1.753906 1.132812 1.753906 1.132812 1.75 1.132812 C 1.746094 1.128906 1.746094 1.128906 1.746094 1.125 C 1.75 1.125 1.757812 1.125 1.761719 1.128906 Z M 1.761719 1.128906 "/>
</g>
</g>
<g clip-path="url(#clip39)" clip-rule="nonzero">
<g clip-path="url(#clip40)" clip-rule="nonzero">
<path style=" stroke:none;fill-rule:nonzero;fill:rgb(0%,0%,0%);fill-opacity:1;" d="M 1.847656 0.914062 C 1.859375 0.914062 1.855469 0.925781 1.859375 0.933594 C 1.859375 0.9375 1.855469 0.9375 1.855469 0.941406 C 1.851562 0.941406 1.851562 0.941406 1.847656 0.941406 C 1.847656 0.9375 1.84375 0.9375 1.84375 0.933594 C 1.851562 0.925781 1.851562 0.917969 1.847656 0.914062 Z M 1.847656 0.914062 "/>
<path style=" stroke:none;fill-rule:nonzero;fill:rgb(0%,0%,0%);fill-opacity:1;" d="M 1.84375 0.933594 C 1.847656 0.933594 1.847656 0.9375 1.847656 0.941406 C 1.84375 0.945312 1.835938 0.945312 1.828125 0.941406 C 1.832031 0.933594 1.839844 0.9375 1.84375 0.933594 Z M 1.84375 0.933594 "/>
</g>
</g>
<g clip-path="url(#clip41)" clip-rule="nonzero">
<g clip-path="url(#clip42)" clip-rule="nonzero">
<path style=" stroke:none;fill-rule:nonzero;fill:rgb(0%,0%,0%);fill-opacity:1;" d="M 1.808594 1.015625 C 1.8125 1.023438 1.808594 1.027344 1.808594 1.03125 C 1.808594 1.03125 1.804688 1.03125 1.800781 1.03125 C 1.804688 1.027344 1.796875 1.015625 1.808594 1.015625 Z M 1.808594 1.015625 "/>
</g>
</g>
<g clip-path="url(#clip43)" clip-rule="nonzero">
<g clip-path="url(#clip44)" clip-rule="nonzero">
<path style=" stroke:none;fill-rule:nonzero;fill:rgb(0%,0%,0%);fill-opacity:1;" d="M 1.804688 0.984375 C 1.804688 0.988281 1.804688 0.992188 1.804688 0.996094 C 1.792969 0.992188 1.796875 0.988281 1.804688 0.984375 Z M 1.804688 0.984375 "/>
<path style=" stroke:none;fill-rule:nonzero;fill:rgb(0%,0%,0%);fill-opacity:1;" d="M 1.375 0.90625 C 1.375 0.90625 1.371094 0.90625 1.371094 0.90625 C 1.367188 0.90625 1.367188 0.902344 1.367188 0.902344 C 1.367188 0.902344 1.371094 0.898438 1.371094 0.898438 C 1.375 0.898438 1.375 0.902344 1.375 0.90625 Z M 1.375 0.90625 "/>
</g>
</g>
<g clip-path="url(#clip45)" clip-rule="nonzero">
<g clip-path="url(#clip46)" clip-rule="nonzero">
<path style=" stroke:none;fill-rule:nonzero;fill:rgb(0%,0%,0%);fill-opacity:1;" d="M 1.65625 1.066406 C 1.652344 1.066406 1.652344 1.066406 1.652344 1.066406 C 1.644531 1.0625 1.640625 1.058594 1.648438 1.054688 C 1.648438 1.054688 1.652344 1.054688 1.652344 1.054688 C 1.65625 1.058594 1.660156 1.0625 1.65625 1.066406 Z M 1.65625 1.066406 "/>
</g>
</g>
<g clip-path="url(#clip47)" clip-rule="nonzero">
<g clip-path="url(#clip48)" clip-rule="nonzero">
<path style=" stroke:none;fill-rule:nonzero;fill:rgb(0%,0%,0%);fill-opacity:1;" d="M 1.847656 0.90625 C 1.839844 0.902344 1.84375 0.898438 1.84375 0.894531 C 1.84375 0.894531 1.84375 0.894531 1.847656 0.894531 C 1.847656 0.898438 1.855469 0.898438 1.859375 0.902344 C 1.855469 0.90625 1.851562 0.90625 1.847656 0.90625 Z M 1.847656 0.90625 "/>
</g>
</g>
<g clip-path="url(#clip49)" clip-rule="nonzero">
<g clip-path="url(#clip50)" clip-rule="nonzero">
<path style=" stroke:none;fill-rule:nonzero;fill:rgb(0%,0%,0%);fill-opacity:1;" d="M 1.863281 1.121094 C 1.855469 1.117188 1.851562 1.109375 1.847656 1.105469 C 1.859375 1.097656 1.859375 1.113281 1.867188 1.113281 C 1.867188 1.117188 1.863281 1.117188 1.863281 1.121094 Z M 1.863281 1.121094 "/>
<path style=" stroke:none;fill-rule:nonzero;fill:rgb(0%,0%,0%);fill-opacity:1;" d="M 1.847656 1.265625 C 1.84375 1.261719 1.84375 1.257812 1.839844 1.257812 C 1.839844 1.253906 1.84375 1.25 1.84375 1.253906 C 1.847656 1.257812 1.847656 1.261719 1.847656 1.265625 Z M 1.847656 1.265625 "/>
<path style=" stroke:none;fill-rule:nonzero;fill:rgb(0%,0%,0%);fill-opacity:1;" d="M 1.523438 1.164062 C 1.519531 1.171875 1.515625 1.183594 1.511719 1.195312 C 1.511719 1.203125 1.507812 1.207031 1.5 1.207031 C 1.492188 1.191406 1.5 1.171875 1.511719 1.160156 C 1.515625 1.160156 1.519531 1.152344 1.523438 1.148438 C 1.527344 1.152344 1.523438 1.160156 1.523438 1.164062 Z M 1.523438 1.164062 "/>
<path style=" stroke:none;fill-rule:nonzero;fill:rgb(0%,0%,0%);fill-opacity:1;" d="M 1.828125 1.070312 C 1.828125 1.070312 1.824219 1.070312 1.824219 1.074219 C 1.820312 1.070312 1.816406 1.066406 1.816406 1.058594 C 1.816406 1.058594 1.824219 1.058594 1.824219 1.058594 C 1.832031 1.0625 1.828125 1.066406 1.828125 1.070312 Z M 1.828125 1.070312 "/>
</g>
</g>
<path style="fill:none;stroke-width:1;stroke-linecap:butt;stroke-linejoin:miter;stroke:rgb(0%,0%,0%);stroke-opacity:1;stroke-miterlimit:10;" d="M 540.983507 339.974946 C 479.695615 405.707558 407.800204 348.047372 361.834285 298.459611 C 380.692098 271.935925 404.264364 237.339813 431.37247 218.888554 C 510.339561 166.994386 596.378332 268.476314 540.983507 339.974946 Z M 540.983507 339.974946 " transform="matrix(0.00331428,0,0,0.0033873,0,0.000745732)"/>
</g>
</svg>
